<?xml version="1.0" encoding="utf-8"?>
<svg version="1.1" id="_x32_" xmlns="http://www.w3.org/2000/svg" xmlns:xlink="http://www.w3.org/1999/xlink" x="0px" y="0px"
	 viewBox="-383 -106 512 512" style="enable-background:new -383 -106 512 512;" xml:space="preserve">
<style type="text/css">
	.st0{fill:#212121;}
</style>
<g>
	<polygon class="st0" points="-250.1,171.9 -209.4,212.6 -127,130.1 -44.6,212.6 -3.9,171.9 -127,48.8 	"/>
	<path class="st0" d="M-127-106c-141.4,0-256,114.6-256,256c0,141.4,114.6,256,256,256c141.4,0,256-114.6,256-256
		C129,8.6,14.4-106-127-106z M25.6,302.6c-39.1,39.1-92.9,63.2-152.6,63.2c-59.6,0-113.5-24.1-152.6-63.2
		c-39.1-39.1-63.2-92.9-63.2-152.6c0-59.7,24.1-113.5,63.2-152.6c39.1-39.1,92.9-63.2,152.6-63.2c59.7,0,113.5,24.1,152.6,63.2
		C64.7,36.5,88.8,90.4,88.8,150C88.8,209.7,64.7,263.5,25.6,302.6z"/>
</g>
</svg>
